<svg xmlns="http://www.w3.org/2000/svg" width="869" height="228" viewBox="0 0 869 228" font-family="ui-monospace, SFMono-Regular, Menlo, Consolas, monospace"><style>@keyframes grow { from { transform: scaleX(0); } to { transform: scaleX(1); } }
@keyframes fade { from { opacity: 0; } to { opacity: 1; } }
.bar { transform-origin: left; animation: grow 0.70s cubic-bezier(.2,.8,.2,1) both; }
.pct { opacity: 0; animation: fade 0.3s ease both; }</style><defs><linearGradient id="lbg" x1="0" y1="0" x2="0" y2="1"><stop offset="0" stop-color="#111722"/><stop offset="1" stop-color="#0d1117"/></linearGradient></defs><rect width="869" height="228" rx="12" fill="url(#lbg)"/><rect x="0.5" y="0.5" width="868" height="227" rx="12" fill="none" stroke="#30363d"/><line x1="0" y1="30" x2="869" y2="30" stroke="#30363d"/><circle cx="20" cy="15.0" r="5" fill="#ff5f56"/><circle cx="36" cy="15.0" r="5" fill="#ffbd2e"/><circle cx="52" cy="15.0" r="5" fill="#27c93f"/><text x="434.5" y="19.0" fill="#7d8590" font-size="12" text-anchor="middle">iamSahil-dev@github: ~$ lang --stats</text><text x="20" y="46" fill="#7d8590" font-size="10.5">top languages across 3 public repos</text><circle cx="24" cy="52.0" r="4" fill="#3178c6"/><text x="34" y="56.0" fill="#c9d1d9" font-size="12">TypeScript</text><rect x="128" y="45.0" width="675.0" height="10" rx="5" fill="#161b22"/><rect class="bar" x="128" y="45.0" width="675.0" height="10" rx="5" fill="#3178c6" style="animation-delay:0.000s"/><text class="pct" x="849" y="56.0" fill="#7d8590" font-size="11.5" text-anchor="end" style="animation-delay:0.550s">89.5%</text><circle cx="24" cy="82.0" r="4" fill="#3572A5"/><text x="34" y="86.0" fill="#c9d1d9" font-size="12">Python</text><rect x="128" y="75.0" width="675.0" height="10" rx="5" fill="#161b22"/><rect class="bar" x="128" y="75.0" width="42.2" height="10" rx="5" fill="#3572A5" style="animation-delay:0.090s"/><text class="pct" x="849" y="86.0" fill="#7d8590" font-size="11.5" text-anchor="end" style="animation-delay:0.640s">5.6%</text><circle cx="24" cy="112.0" r="4" fill="#563d7c"/><text x="34" y="116.0" fill="#c9d1d9" font-size="12">CSS</text><rect x="128" y="105.0" width="675.0" height="10" rx="5" fill="#161b22"/><rect class="bar" x="128" y="105.0" width="20.2" height="10" rx="5" fill="#563d7c" style="animation-delay:0.180s"/><text class="pct" x="849" y="116.0" fill="#7d8590" font-size="11.5" text-anchor="end" style="animation-delay:0.730s">2.5%</text><circle cx="24" cy="142.0" r="4" fill="#f1e05a"/><text x="34" y="146.0" fill="#c9d1d9" font-size="12">JavaScript</text><rect x="128" y="135.0" width="675.0" height="10" rx="5" fill="#161b22"/><rect class="bar" x="128" y="135.0" width="20.2" height="10" rx="5" fill="#f1e05a" style="animation-delay:0.270s"/><text class="pct" x="849" y="146.0" fill="#7d8590" font-size="11.5" text-anchor="end" style="animation-delay:0.820s">1.8%</text><circle cx="24" cy="172.0" r="4" fill="#e34c26"/><text x="34" y="176.0" fill="#c9d1d9" font-size="12">HTML</text><rect x="128" y="165.0" width="675.0" height="10" rx="5" fill="#161b22"/><rect class="bar" x="128" y="165.0" width="20.2" height="10" rx="5" fill="#e34c26" style="animation-delay:0.360s"/><text class="pct" x="849" y="176.0" fill="#7d8590" font-size="11.5" text-anchor="end" style="animation-delay:0.910s">0.5%</text></svg>